<svg xmlns="http://www.w3.org/2000/svg" viewBox="-13.9 -14.6 464 354"><path d="M428.2 70S424 38.1 411 24.2C394.5 5.8 376.1 5.7 367.6 4.7 307.1 0 216.3 0 216.3 0h-.3S125.2 0 64.6 4.7c-8.5 1-26.9 1.2-43.4 19.5C8.4 38.3 4.1 70 4.1 70S0 107.3 0 144.6v35c0 37.3 4.3 74.6 4.3 74.6s4.2 31.9 17.2 45.8c16.5 18.4 38 17.8 47.7 19.8 34.6 3.5 147.1 4.7 147.1 4.7s90.9-.1 151.5-4.8c8.5-1 26.9-1.2 43.4-19.5 12.9-14 17.2-45.8 17.2-45.8s4.3-37.3 4.3-74.6v-35c-.2-37.5-4.5-74.8-4.5-74.8z" fill="#63d1bb" stroke="#fff" stroke-width="25" stroke-miterlimit="10"/><path fill="#fff" d="M162.2 81v162.3l135.2-81.1z"/></svg>